<svg width="50" height="30" viewBox="40 -10 90 112" fill="none" class="footer-module--logo--_lkxx" xmlns="http://www.w3.org/2000/svg">
  <path d="M43.23 3H61.75L24.47 52.53C23.03 54.44 22.84 56.96 23.98 59.04L41.33 90.85C42.65 93.27 45.28 94.79 48.15 94.79C50.56 94.79 52.82 93.72 54.28 91.89L93.65 42.41L101.37 56.12L61.87 107.11C60.83 108.46 59.17 109.25 57.41 109.25H34.31C32.21 109.25 30.29 108.12 29.35 106.33L4.58003 58.98C3.66003 57.23 3.84003 55.14 5.04003 53.55L43.23 3Z" fill="#3685D7"/>
  <path d="M100.2 109.28H81.6801L118.96 59.75C120.4 57.84 120.59 55.32 119.45 53.24L102.1 21.43C100.78 19.01 98.1501 17.49 95.2801 17.49C92.8701 17.49 90.6101 18.56 89.1501 20.39L49.7801 69.87L42.0601 56.16L81.5601 5.14C82.6001 3.8 84.2601 3 86.0201 3H109.12C111.22 3 113.14 4.13 114.08 5.92L138.85 53.29C139.77 55.04 139.59 57.13 138.39 58.72L100.2 109.28Z" fill="#1DD0BC"/>
</svg>